<mxfile host="Electron" agent="Mozilla/5.0 (Windows NT 10.0; Win64; x64) AppleWebKit/537.36 (KHTML, like Gecko) draw.io/24.7.17 Chrome/128.0.6613.36 Electron/32.0.1 Safari/537.36" version="24.7.17">
  <diagram id="C5RBs43oDa-KdzZeNtuy" name="Page-1">
    <mxGraphModel dx="1434" dy="836" grid="1" gridSize="10" guides="1" tooltips="1" connect="1" arrows="1" fold="1" page="1" pageScale="1" pageWidth="827" pageHeight="1169" math="0" shadow="0">
      <root>
        <mxCell id="WIyWlLk6GJQsqaUBKTNV-0" />
        <mxCell id="WIyWlLk6GJQsqaUBKTNV-1" parent="WIyWlLk6GJQsqaUBKTNV-0" />
        <mxCell id="_yZmmeRxuG4iH1bj6ReF-2" value="" style="edgeStyle=orthogonalEdgeStyle;rounded=0;orthogonalLoop=1;jettySize=auto;html=1;" edge="1" parent="WIyWlLk6GJQsqaUBKTNV-1" source="_yZmmeRxuG4iH1bj6ReF-0" target="_yZmmeRxuG4iH1bj6ReF-1">
          <mxGeometry relative="1" as="geometry" />
        </mxCell>
        <mxCell id="_yZmmeRxuG4iH1bj6ReF-0" value="Bắt đầu" style="ellipse;whiteSpace=wrap;html=1;" vertex="1" parent="WIyWlLk6GJQsqaUBKTNV-1">
          <mxGeometry x="350" y="90" width="120" height="80" as="geometry" />
        </mxCell>
        <mxCell id="_yZmmeRxuG4iH1bj6ReF-6" value="" style="edgeStyle=orthogonalEdgeStyle;rounded=0;orthogonalLoop=1;jettySize=auto;html=1;" edge="1" parent="WIyWlLk6GJQsqaUBKTNV-1" source="_yZmmeRxuG4iH1bj6ReF-1" target="_yZmmeRxuG4iH1bj6ReF-5">
          <mxGeometry relative="1" as="geometry" />
        </mxCell>
        <mxCell id="_yZmmeRxuG4iH1bj6ReF-1" value="Nhập số thứ 1, só&lt;div&gt;thứ 2&lt;/div&gt;" style="shape=parallelogram;perimeter=parallelogramPerimeter;whiteSpace=wrap;html=1;fixedSize=1;" vertex="1" parent="WIyWlLk6GJQsqaUBKTNV-1">
          <mxGeometry x="340" y="220" width="140" height="60" as="geometry" />
        </mxCell>
        <mxCell id="_yZmmeRxuG4iH1bj6ReF-8" value="đúng" style="edgeStyle=orthogonalEdgeStyle;rounded=0;orthogonalLoop=1;jettySize=auto;html=1;" edge="1" parent="WIyWlLk6GJQsqaUBKTNV-1" source="_yZmmeRxuG4iH1bj6ReF-5" target="_yZmmeRxuG4iH1bj6ReF-7">
          <mxGeometry relative="1" as="geometry" />
        </mxCell>
        <mxCell id="_yZmmeRxuG4iH1bj6ReF-10" value="sai" style="edgeStyle=orthogonalEdgeStyle;rounded=0;orthogonalLoop=1;jettySize=auto;html=1;" edge="1" parent="WIyWlLk6GJQsqaUBKTNV-1" source="_yZmmeRxuG4iH1bj6ReF-5" target="_yZmmeRxuG4iH1bj6ReF-9">
          <mxGeometry relative="1" as="geometry" />
        </mxCell>
        <mxCell id="_yZmmeRxuG4iH1bj6ReF-5" value="số thứ 1 &amp;lt; só thứ 2" style="rhombus;whiteSpace=wrap;html=1;" vertex="1" parent="WIyWlLk6GJQsqaUBKTNV-1">
          <mxGeometry x="355" y="310" width="110" height="90" as="geometry" />
        </mxCell>
        <mxCell id="_yZmmeRxuG4iH1bj6ReF-22" style="edgeStyle=orthogonalEdgeStyle;rounded=0;orthogonalLoop=1;jettySize=auto;html=1;" edge="1" parent="WIyWlLk6GJQsqaUBKTNV-1">
          <mxGeometry relative="1" as="geometry">
            <mxPoint x="1500" y="1025" as="targetPoint" />
            <mxPoint x="1500" y="910" as="sourcePoint" />
          </mxGeometry>
        </mxCell>
        <mxCell id="_yZmmeRxuG4iH1bj6ReF-24" style="edgeStyle=orthogonalEdgeStyle;rounded=0;orthogonalLoop=1;jettySize=auto;html=1;" edge="1" parent="WIyWlLk6GJQsqaUBKTNV-1" source="_yZmmeRxuG4iH1bj6ReF-7" target="_yZmmeRxuG4iH1bj6ReF-12">
          <mxGeometry relative="1" as="geometry">
            <mxPoint x="580" y="490" as="targetPoint" />
            <Array as="points">
              <mxPoint x="580" y="438" />
              <mxPoint x="581" y="438" />
              <mxPoint x="581" y="500" />
            </Array>
          </mxGeometry>
        </mxCell>
        <mxCell id="_yZmmeRxuG4iH1bj6ReF-7" value="Số thứ 1 nhỏ hơn" style="shape=parallelogram;perimeter=parallelogramPerimeter;whiteSpace=wrap;html=1;fixedSize=1;" vertex="1" parent="WIyWlLk6GJQsqaUBKTNV-1">
          <mxGeometry x="520" y="325" width="120" height="60" as="geometry" />
        </mxCell>
        <mxCell id="_yZmmeRxuG4iH1bj6ReF-26" style="edgeStyle=orthogonalEdgeStyle;rounded=0;orthogonalLoop=1;jettySize=auto;html=1;entryX=0;entryY=0.5;entryDx=0;entryDy=0;" edge="1" parent="WIyWlLk6GJQsqaUBKTNV-1" source="_yZmmeRxuG4iH1bj6ReF-9" target="_yZmmeRxuG4iH1bj6ReF-12">
          <mxGeometry relative="1" as="geometry">
            <mxPoint x="240" y="520" as="targetPoint" />
            <Array as="points">
              <mxPoint x="240" y="470" />
              <mxPoint x="241" y="470" />
              <mxPoint x="241" y="500" />
            </Array>
          </mxGeometry>
        </mxCell>
        <mxCell id="_yZmmeRxuG4iH1bj6ReF-9" value="số thứ 2 nhỏ hơn" style="shape=parallelogram;perimeter=parallelogramPerimeter;whiteSpace=wrap;html=1;fixedSize=1;" vertex="1" parent="WIyWlLk6GJQsqaUBKTNV-1">
          <mxGeometry x="180" y="325" width="120" height="60" as="geometry" />
        </mxCell>
        <mxCell id="_yZmmeRxuG4iH1bj6ReF-28" value="" style="edgeStyle=orthogonalEdgeStyle;rounded=0;orthogonalLoop=1;jettySize=auto;html=1;" edge="1" parent="WIyWlLk6GJQsqaUBKTNV-1" source="_yZmmeRxuG4iH1bj6ReF-12" target="_yZmmeRxuG4iH1bj6ReF-27">
          <mxGeometry relative="1" as="geometry" />
        </mxCell>
        <mxCell id="_yZmmeRxuG4iH1bj6ReF-12" value="hiển thị số bé hơn" style="shape=parallelogram;perimeter=parallelogramPerimeter;whiteSpace=wrap;html=1;fixedSize=1;" vertex="1" parent="WIyWlLk6GJQsqaUBKTNV-1">
          <mxGeometry x="340" y="470" width="120" height="60" as="geometry" />
        </mxCell>
        <mxCell id="_yZmmeRxuG4iH1bj6ReF-27" value="Kết thúc" style="ellipse;whiteSpace=wrap;html=1;" vertex="1" parent="WIyWlLk6GJQsqaUBKTNV-1">
          <mxGeometry x="340" y="585" width="120" height="80" as="geometry" />
        </mxCell>
      </root>
    </mxGraphModel>
  </diagram>
</mxfile>
